<?xml version="1.0" standalone="no"?>
<!DOCTYPE svg PUBLIC "-//W3C//DTD SVG 1.1//EN" "http://www.w3.org/Graphics/SVG/1.1/DTD/svg11.dtd" >
<svg xmlns="http://www.w3.org/2000/svg">
<metadata>Generated by IcoMoon</metadata>
<defs>
<font id="BoliganalysenIcons" horiz-adv-x="1024">
<font-face units-per-em="1024" ascent="960" descent="-64" />
<missing-glyph horiz-adv-x="1024" />
<glyph unicode="&#x20;" horiz-adv-x="512" d="" />
<glyph unicode="&#xe900;" glyph-name="save" d="M796.444 960h-682.667c-63.147 0-113.778-51.2-113.778-113.778v-796.444c0-62.578 50.631-113.778 113.778-113.778h796.444c62.578 0 113.778 51.2 113.778 113.778v682.667l-227.556 227.556zM512 49.778c-94.436 0-170.667 76.231-170.667 170.667s76.231 170.667 170.667 170.667c94.436 0 170.667-76.231 170.667-170.667s-76.231-170.667-170.667-170.667zM682.667 618.667h-568.889v227.556h568.889v-227.556z" />
<glyph unicode="&#xe901;" glyph-name="close, times" d="M54.135 959.974c-0.004 0-0.009 0-0.013 0-29.493 0-53.402-23.909-53.402-53.402 0-15.021 6.202-28.593 16.184-38.296l0.013-0.012 915.412-915.347c9.77-10.423 23.624-16.916 38.995-16.916 29.493 0 53.402 23.909 53.402 53.402 0 15.37-6.494 29.224-16.887 38.968l-0.029 0.027-915.347 915.412c-9.713 9.976-23.272 16.165-38.278 16.165-0.017 0-0.034 0-0.052 0h0.003zM968.961 959.974c-14.427-0.447-27.347-6.549-36.685-16.153l-915.359-915.424c-10.423-9.77-16.916-23.624-16.916-38.995 0-29.493 23.909-53.402 53.402-53.402 15.37 0 29.224 6.494 38.968 16.887l0.027 0.029 915.412 915.347c10.011 9.718 16.224 23.301 16.224 38.335 0 29.493-23.909 53.402-53.402 53.402-0.587 0-1.172-0.009-1.755-0.028l0.085 0.002z" />
  <glyph unicode="&#xe902;" glyph-name="pencil"
         d="M41.171 172.373v-196.313h196.313l578.994 578.994-196.313 196.313zM968.296 706.872c20.415 20.415 20.415 53.394 0 73.815l-122.498 122.498c-20.415 20.415-53.394 20.415-73.815 0l-95.803-95.803 196.313-196.313z"/>
<glyph unicode="&#xe903;" glyph-name="arrow-right" d="M500.687 960c-35.371 0-64.109-28.296-64.75-63.562v-1.187c0-17.856 7.227-33.976 18.875-45.688l326.875-338.063h-690.687c-35.776 0-64.813-28.974-64.812-64.75v-1.064c0.576-35.328 29.388-63.75 64.812-63.75h688.187l-324.375-335.499c-11.648-11.712-18.875-27.832-18.875-45.687v-1.188c0.641-35.267 29.379-63.562 64.75-63.562 18.624 0 35.38 7.862 47.188 20.438h0.064l430.374 445.25c0.042 0.042 0.083 0.083 0.125 0.125 1.805 1.773 3.287 3.839 4.875 5.812 1.1 1.369 2.324 2.606 3.312 4.062 0.032 0.048 0.093 0.077 0.125 0.125 2.25 3.33 4.205 6.893 5.812 10.625 0.008 0.018-0.008 0.045 0 0.064 1.682 3.915 2.988 7.981 3.875 12.25 0.889 4.278 1.375 8.708 1.375 13.25s-0.486 8.972-1.375 13.25c-0.887 4.269-2.193 8.335-3.875 12.25-0.007 0.017 0.007 0.045 0 0.064-1.61 3.74-3.559 7.286-5.812 10.625-0.032 0.048-0.093 0.077-0.125 0.125-0.988 1.456-2.212 2.694-3.312 4.062-1.588 1.973-3.070 4.039-4.875 5.812-0.042 0.042-0.083 0.083-0.125 0.125l-430.439 445.248c-11.806 12.576-28.562 20.438-47.186 20.438z" />
<glyph unicode="&#xe904;" glyph-name="arrow-left" d="M523.313 960c35.371 0 64.109-28.296 64.75-63.562v-1.187c0-17.856-7.227-33.976-18.875-45.688l-326.875-338.063h690.687c35.776 0 64.813-28.974 64.812-64.75v-1.064c-0.576-35.328-29.388-63.75-64.812-63.75h-688.187l324.375-335.499c11.648-11.712 18.875-27.832 18.875-45.687v-1.188c-0.641-35.267-29.379-63.562-64.75-63.562-18.624 0-35.38 7.862-47.188 20.438h-0.064l-430.374 445.25c-0.042 0.042-0.083 0.083-0.125 0.125-1.805 1.773-3.287 3.839-4.875 5.812-1.1 1.369-2.324 2.606-3.312 4.062-0.032 0.048-0.093 0.077-0.125 0.125-2.25 3.33-4.205 6.893-5.812 10.625-0.008 0.018 0.008 0.045 0 0.064-1.682 3.915-2.988 7.981-3.875 12.25-0.889 4.278-1.375 8.708-1.375 13.25s0.486 8.972 1.375 13.25c0.887 4.269 2.193 8.335 3.875 12.25 0.007 0.017-0.007 0.045 0 0.064 1.61 3.74 3.559 7.286 5.812 10.625 0.032 0.048 0.093 0.077 0.125 0.125 0.988 1.456 2.212 2.694 3.312 4.062 1.588 1.973 3.070 4.039 4.875 5.812 0.042 0.042 0.083 0.083 0.125 0.125l430.439 445.248c11.806 12.576 28.562 20.438 47.186 20.438z" />
<glyph unicode="&#xe905;" glyph-name="arrow-top" d="M0 436.687c0-35.371 28.296-64.109 63.562-64.75h1.187c17.856 0 33.976 7.227 45.688 18.875l338.063 326.875v-690.687c0-35.776 28.974-64.813 64.75-64.812h1.064c35.328 0.576 63.75 29.388 63.75 64.812v688.187l335.499-324.375c11.712-11.648 27.832-18.875 45.687-18.875h1.188c35.267 0.641 63.562 29.379 63.562 64.75 0 18.624-7.862 35.38-20.438 47.188v0.064l-445.25 430.374c-0.042 0.042-0.083 0.083-0.125 0.125-1.773 1.805-3.839 3.287-5.812 4.875-1.369 1.1-2.606 2.324-4.062 3.312-0.048 0.032-0.077 0.093-0.125 0.125-3.33 2.25-6.893 4.205-10.625 5.812-0.018 0.008-0.045-0.008-0.064 0-3.915 1.682-7.981 2.988-12.25 3.875-4.278 0.889-8.708 1.375-13.25 1.375s-8.972-0.486-13.25-1.375c-4.269-0.887-8.335-2.193-12.25-3.875-0.017-0.007-0.045 0.007-0.064 0-3.74-1.61-7.286-3.559-10.625-5.812-0.048-0.032-0.077-0.093-0.125-0.125-1.456-0.988-2.694-2.212-4.062-3.312-1.973-1.588-4.039-3.070-5.812-4.875-0.042-0.042-0.083-0.083-0.125-0.125l-445.248-430.439c-12.576-11.806-20.438-28.562-20.438-47.186z" />
<glyph unicode="&#xe906;" glyph-name="arrow-bottom" d="M1024 459.313c0 35.371-28.296 64.109-63.562 64.75h-1.187c-17.856 0-33.976-7.227-45.688-18.875l-338.063-326.875v690.687c0 35.776-28.974 64.813-64.75 64.812h-1.064c-35.328-0.576-63.75-29.388-63.75-64.812v-688.187l-335.499 324.375c-11.712 11.648-27.832 18.875-45.687 18.875h-1.188c-35.267-0.641-63.562-29.379-63.562-64.75 0-18.624 7.862-35.38 20.438-47.188v-0.064l445.25-430.374c0.042-0.042 0.083-0.083 0.125-0.125 1.773-1.805 3.839-3.287 5.812-4.875 1.369-1.1 2.606-2.324 4.062-3.312 0.048-0.032 0.077-0.093 0.125-0.125 3.33-2.25 6.893-4.205 10.625-5.812 0.018-0.008 0.045 0.008 0.064 0 3.915-1.682 7.981-2.988 12.25-3.875 4.278-0.889 8.708-1.375 13.25-1.375s8.972 0.486 13.25 1.375c4.269 0.887 8.335 2.193 12.25 3.875 0.017 0.007 0.045-0.007 0.064 0 3.74 1.61 7.286 3.559 10.625 5.812 0.048 0.032 0.077 0.093 0.125 0.125 1.456 0.988 2.694 2.212 4.062 3.312 1.973 1.588 4.039 3.070 5.812 4.875 0.042 0.042 0.083 0.083 0.125 0.125l445.248 430.439c12.576 11.806 20.438 28.562 20.438 47.186z" />
<glyph unicode="&#xe907;" glyph-name="arrow-right_bold" d="M501.438 960c-56.683 0-102.755-45.453-103.813-102v-0.062c-0.026-0.568 0-1.153 0-1.75 0-28.576 11.5-54.466 30.188-73.25l224.938-232.688h-524.813c-57.344 0-103.813-46.531-103.813-103.875v-1.5h0.063c0.896-56.64 47.044-102.25 103.812-102.25h521.75l-221.938-229.562c-18.688-18.784-30.188-44.674-30.188-73.25 0-0.597-0.026-1.182 0-1.75v-0.062c0 0 0-0.062 0-0.062 1.057-56.547 47.13-101.938 103.813-101.938 29.792 0 56.65 12.529 75.562 32.625l0.062 0.062 392.062 405.562c4.815 4.782 9.131 10.107 12.938 15.75 3.73 5.528 6.94 11.41 9.562 17.625 2.623 6.217 4.685 12.735 6.062 19.5 1.375 6.719 2.116 13.689 2.125 20.813 0 0.042 0 0.083 0 0.125 0 7.136-0.755 14.082-2.125 20.813-1.377 6.765-3.439 13.283-6.062 19.5-2.622 6.215-5.833 12.097-9.562 17.625-3.807 5.643-8.123 10.968-12.938 15.75l-392.125 405.625c-18.912 20.096-45.77 32.625-75.562 32.625z" />
<glyph unicode="&#xe908;" glyph-name="arrow-left_bold" d="M522.562 960c56.683 0 102.755-45.453 103.813-102v-0.062c0.026-0.568 0-1.153 0-1.75 0-28.576-11.5-54.466-30.188-73.25l-224.938-232.688h524.813c57.344 0 103.813-46.531 103.813-103.875v-1.5h-0.063c-0.896-56.64-47.044-102.25-103.812-102.25h-521.75l221.938-229.562c18.688-18.784 30.188-44.674 30.188-73.25 0-0.597 0.026-1.182 0-1.75v-0.062c0 0 0-0.062 0-0.062-1.057-56.547-47.13-101.938-103.813-101.938-29.792 0-56.65 12.529-75.562 32.625l-0.062 0.062-392.062 405.562c-4.815 4.782-9.131 10.107-12.938 15.75-3.73 5.528-6.94 11.41-9.562 17.625-2.623 6.217-4.685 12.735-6.062 19.5-1.375 6.719-2.116 13.689-2.125 20.813 0 0.042 0 0.083 0 0.125 0 7.136 0.755 14.082 2.125 20.813 1.377 6.765 3.439 13.283 6.062 19.5 2.622 6.215 5.833 12.097 9.562 17.625 3.807 5.643 8.123 10.968 12.938 15.75l392.125 405.625c18.912 20.096 45.77 32.625 75.562 32.625z" />
<glyph unicode="&#xe909;" glyph-name="arrow-top_bold" d="M0 437.438c0-56.683 45.453-102.755 102-103.813h0.062c0.568-0.026 1.153 0 1.75 0 28.576 0 54.466 11.5 73.25 30.188l232.688 224.938v-524.813c0-57.344 46.531-103.813 103.875-103.813h1.5v0.063c56.64 0.896 102.25 47.044 102.25 103.812v521.75l229.562-221.938c18.784-18.688 44.674-30.188 73.25-30.188 0.597 0 1.182-0.026 1.75 0h0.062c0 0 0.062 0 0.062 0 56.547 1.057 101.938 47.13 101.938 103.813 0 29.792-12.529 56.65-32.625 75.562l-0.062 0.062-405.562 392.062c-4.782 4.815-10.107 9.131-15.75 12.938-5.528 3.73-11.41 6.94-17.625 9.562-6.217 2.623-12.735 4.685-19.5 6.062-6.719 1.375-13.689 2.116-20.813 2.125-0.042 0-0.083 0-0.125 0-7.136 0-14.082-0.755-20.813-2.125-6.765-1.377-13.283-3.439-19.5-6.062-6.215-2.622-12.097-5.833-17.625-9.562-5.643-3.807-10.968-8.123-15.75-12.938l-405.625-392.125c-20.096-18.912-32.625-45.77-32.625-75.562z" />
<glyph unicode="&#xe90a;" glyph-name="arrow-bottom_bold" d="M1024 458.562c0 56.683-45.453 102.755-102 103.813h-0.062c-0.568 0.026-1.153 0-1.75 0-28.576 0-54.466-11.5-73.25-30.188l-232.688-224.938v524.813c0 57.344-46.531 103.813-103.875 103.813h-1.5v-0.063c-56.64-0.896-102.25-47.044-102.25-103.812v-521.75l-229.562 221.938c-18.784 18.688-44.674 30.188-73.25 30.188-0.597 0-1.182 0.026-1.75 0h-0.062c0 0-0.062 0-0.062 0-56.547-1.057-101.938-47.13-101.938-103.813 0-29.792 12.529-56.65 32.625-75.562l0.062-0.062 405.562-392.062c4.782-4.815 10.107-9.131 15.75-12.938 5.528-3.73 11.41-6.94 17.625-9.562 6.217-2.623 12.735-4.685 19.5-6.062 6.719-1.375 13.689-2.116 20.813-2.125 0.042 0 0.083 0 0.125 0 7.136 0 14.082 0.755 20.813 2.125 6.765 1.377 13.283 3.439 19.5 6.062 6.215 2.622 12.097 5.833 17.625 9.562 5.643 3.807 10.968 8.123 15.75 12.938l405.625 392.125c20.096 18.912 32.625 45.77 32.625 75.562z" />
<glyph unicode="&#xe90b;" glyph-name="plus" d="M511.163 959.99c-47.596-0.767-85.885-39.53-85.885-87.237 0-0.443 0.003-0.885 0.010-1.326l-0.001 0.067v-845.98c-0.019-0.675-0.029-1.47-0.029-2.267 0-48.185 39.062-87.247 87.247-87.247s87.247 39.062 87.247 87.247c0 0.797-0.011 1.592-0.032 2.384l0.002-0.117v845.98c0.006 0.374 0.009 0.816 0.009 1.258 0 48.185-39.062 87.247-87.247 87.247-0.465 0-0.928-0.004-1.391-0.011l0.070 0.001zM89.515 535.722c-0.675 0.019-1.47 0.029-2.267 0.029-48.185 0-87.247-39.062-87.247-87.247s39.062-87.247 87.247-87.247c0.797 0 1.592 0.011 2.384 0.032l-0.117-0.002h845.98c0.675-0.019 1.47-0.029 2.267-0.029 48.185 0 87.247 39.062 87.247 87.247s-39.062 87.247-87.247 87.247c-0.797 0-1.592-0.011-2.384-0.032l0.117 0.002z" />
<glyph unicode="&#xe90c;" glyph-name="minus" d="M74 521c-0.179 0.002-0.392 0.002-0.604 0.002-40.318 0-73.002-32.684-73.002-73.002s32.684-73.002 73.002-73.002c0.212 0 0.425 0.001 0.637 0.003h875.906c0.179-0.002 0.392-0.002 0.604-0.002 40.318 0 73.002 32.684 73.002 73.002s-32.684 73.002-73.002 73.002c-0.212 0-0.425-0.001-0.637-0.003h0.032z" />
  <glyph unicode="&#xe90d;" glyph-name="copy" horiz-adv-x="885"
         d="M652.366 958.889h-558.419c-51.188 0-93.070-41.881-93.070-93.070v-651.488h93.070v651.488h558.419zM791.971 772.75h-511.884c-51.188 0-93.070-41.881-93.070-93.070v-651.488c0-51.188 41.881-93.070 93.070-93.070h511.884c51.188 0 93.070 41.881 93.070 93.070v651.488c0 51.188-41.881 93.070-93.070 93.070zM791.971 28.192h-511.884v651.488h511.884z"/>
  <glyph unicode="&#xe90e;" glyph-name="trash" horiz-adv-x="944"
         d="M92.577 774.281v-838.281h745.013v838.281zM183.394 683.401h563.316v-656.521h-563.316zM45.44 774.784c-25.096 0-45.44-20.344-45.44-45.44s20.344-45.44 45.44-45.44v0h845.571c25.096 0 45.44 20.344 45.44 45.44s-20.344 45.44-45.44 45.44v0zM334.734 960c-36.822 0-67.688-30.756-67.688-67.626v-111.243c0-36.822 30.819-67.688 67.688-67.688h266.983c36.822 0 67.688 30.819 67.688 67.688v111.243c0 36.822-30.819 67.626-67.688 67.626zM357.926 869.183h220.6v-64.86h-220.6zM289.734 600.063c-16.514-0.279-29.794-13.731-29.794-30.286 0-0.157 0.001-0.314 0.004-0.471v0.024-428.379c0-16.73 13.563-30.293 30.293-30.293s30.293 13.563 30.293 30.293v0 428.379c0.002 0.133 0.003 0.29 0.003 0.448 0 16.729-13.561 30.29-30.29 30.29-0.179 0-0.358-0.002-0.537-0.005h0.027zM467.786 600.063c-16.541-0.244-29.857-13.71-29.857-30.287 0-0.157 0.001-0.314 0.004-0.47v0.024-428.379c0-16.73 13.563-30.293 30.293-30.293s30.293 13.563 30.293 30.293v0 428.379c0.002 0.133 0.003 0.29 0.003 0.447 0 16.729-13.561 30.29-30.29 30.29-0.157 0-0.314-0.001-0.471-0.004h0.024zM645.774 600.063c-16.541-0.244-29.857-13.71-29.857-30.287 0-0.157 0.001-0.314 0.004-0.47v0.024-428.379c0-16.73 13.563-30.293 30.293-30.293s30.293 13.563 30.293 30.293v0 428.379c0.002 0.133 0.003 0.29 0.003 0.447 0 16.729-13.561 30.29-30.29 30.29-0.157 0-0.314-0.001-0.471-0.004h0.024z"/>
<glyph unicode="&#xe90f;" glyph-name="eye" horiz-adv-x="1451" d="M725.807 685.669c-130.265 0-237.731-107.402-237.731-237.669s107.465-237.668 237.731-237.668c130.265 0 237.668 107.402 237.668 237.668s-107.402 237.669-237.668 237.669zM725.807 515.057c38.041 0 66.995-29.017 66.995-67.057s-28.954-67.057-66.995-67.057c-38.041 0-67.057 29.017-67.057 67.057s29.017 67.057 67.057 67.057zM726.932 959.958c-143.483 0-293.366-53.36-423.778-138.052s-242.534-201.744-296.976-343.285c-3.682-9.181-5.817-19.824-5.817-30.965 0-47.129 38.206-85.334 85.334-85.334 36.246 0 67.214 22.598 79.583 54.473l0.199 0.582c36.879 95.879 124.012 192.152 230.668 261.416s231.664 110.491 330.786 110.491c99.492 0 223.044-40.546 328.786-108.741s192.532-163.102 230.793-258.417c12.952-31.666 43.524-53.571 79.213-53.571 47.137 0 85.349 38.212 85.349 85.349 0 11.449-2.254 22.371-6.343 32.347l0.206-0.569c-55.939 139.354-167.271 254.797-296.726 338.286s-278.166 135.989-421.279 135.989zM86.922 534.431c-0.455 0.009-0.991 0.014-1.529 0.014-47.129 0-85.334-38.206-85.334-85.334 0-11.431 2.248-22.338 6.325-32.301l-0.206 0.569c54.442-141.542 166.563-258.593 296.976-343.285s280.295-138.051 423.778-138.051c143.112 0 291.823 52.501 421.279 135.989s240.786 198.931 296.726 338.286c3.883 9.407 6.137 20.329 6.137 31.778 0 47.137-38.212 85.349-85.349 85.349-35.688 0-66.261-21.904-79.006-53.002l-0.206-0.569c-38.261-95.315-125.052-190.222-230.793-258.417s-229.293-108.741-328.786-108.741c-99.121 0-224.129 41.227-330.786 110.491s-193.79 165.537-230.668 261.417c-12.187 32.393-42.632 55.152-78.477 55.806l-0.079 0.001z" />
<glyph unicode="&#xe910;" glyph-name="check" horiz-adv-x="1449" d="M118.211 555.543c-65.514-1.076-118.211-54.437-118.211-120.107 0-34.444 14.497-65.503 37.723-87.406l0.059-0.056 388.548-376.54c21.762-21.888 51.894-35.434 85.19-35.434 66.342 0 120.122 53.781 120.122 120.122 0 34.608-14.635 65.798-38.055 87.718l-0.067 0.062-388.548 376.606c-21.725 21.659-51.702 35.051-84.807 35.051-0.688 0-1.374-0.006-2.058-0.017l0.103 0.001zM1320.275 959.992c-32.492-0.391-61.819-13.622-83.207-34.844l0.008 0.007-810.482-780.989c-23.485-21.982-38.119-53.17-38.119-87.777 0-66.342 53.781-120.122 120.122-120.122 33.031 0 62.949 13.332 84.665 34.909l-0.006-0.006 810.482 780.989c23.448 21.978 38.056 53.142 38.056 87.719 0 66.342-53.781 120.122-120.122 120.122-0.491 0-0.982-0.003-1.472-0.009l0.075 0.001z" />
<glyph unicode="&#xe911;" glyph-name="check_bold" horiz-adv-x="1317" d="M158.617 590.292c-1.083 0.028-2.358 0.043-3.638 0.043-84.565 0-153.119-68.554-153.119-153.119 0-41.721 16.686-79.545 43.748-107.161l-0.025 0.026 326.606-342.894c28.066-30.366 68.102-49.316 112.563-49.316 84.565 0 153.119 68.554 153.119 153.119 0 41.826-16.77 79.735-43.953 107.37l0.021-0.021-326.606 342.894c-27.245 29.368-65.705 48.002-108.527 49.056l-0.189 0.004zM1173.235 958.37c-2.241 0.118-4.864 0.183-7.503 0.183-44.207 0-84.038-18.734-111.989-48.695l-0.083-0.090-681.144-711.103c-27.607-27.692-44.676-65.902-44.676-108.1 0-84.565 68.554-153.119 153.119-153.119 44.507 0 84.579 18.989 112.556 49.308l0.096 0.105 681.209 711.103c27.235 27.627 44.053 65.585 44.053 107.472 0 81.935-64.355 148.838-145.274 152.922l-0.365 0.015z" />
  <glyph unicode="&#xe912;" glyph-name="person" horiz-adv-x="928"
         d="M460.771 471.083c-121.966 0-233.265-32.396-317.433-88.512s-143.338-140.041-143.338-237.008v-126.91c0-29.125 11.321-42.22 22.988-55.017s25.898-27.636 57.883-27.636h769.99c31.438 0 55.159 25.907 62.404 42.027s8.278 28.429 8.278 40.626v126.91c0 96.971-59.163 180.893-143.338 237.008s-195.467 88.512-317.433 88.512zM460.771 361.239c102.179 0 193.831-28.229 256.557-70.045s94.434-93.182 94.434-145.631v-99.719h-701.919v99.719c0 52.453 31.717 103.816 94.434 145.631s154.314 70.045 256.494 70.045zM464.656 960c-157.772 0-286.804-129.067-286.804-286.804 0-157.747 129.057-286.804 286.804-286.804 157.772 0 286.804 129.067 286.804 286.804 0 157.747-129.057 286.804-286.804 286.804zM464.656 850.156c98.382 0 176.96-78.578 176.96-176.96 0-98.391-78.538-177.024-176.96-177.024-98.382 0-177.024 78.642-177.024 177.024 0 98.391 78.602 176.96 177.024 176.96z"/>
  <glyph unicode="&#xe913;" glyph-name="close_bold, times_bold"
         d="M88.045 959.962c-47.96-0.048-86.821-38.939-86.821-86.906 0-24.413 10.066-46.475 26.275-62.262l0.019-0.018 847.258-847.258c15.899-16.955 38.44-27.518 63.448-27.518 47.997 0 86.906 38.909 86.906 86.906 0 25.008-10.563 47.549-27.47 63.405l-0.047 0.044-847.258 847.258c-15.804 16.255-37.878 26.342-62.308 26.35h-0.001zM934.476 959.962c-23.476-0.745-44.494-10.69-59.68-26.328l-847.279-847.279c-16.955-15.9-27.518-38.44-27.518-63.448 0-47.997 38.909-86.906 86.906-86.906 25.008 0 47.549 10.563 63.405 27.471l0.044 0.047 847.258 847.258c16.251 15.808 26.333 37.886 26.333 62.318 0 47.997-38.909 86.906-86.906 86.906-0.901 0-1.799-0.014-2.694-0.041l0.131 0.003z"/>
  <glyph unicode="&#xe914;" glyph-name="archive" horiz-adv-x="809"
         d="M645.68 460.312c-0.191 0.003-0.417 0.005-0.643 0.005-25.114 0-45.473-20.359-45.473-45.473s20.359-45.473 45.473-45.473c0.226 0 0.452 0.002 0.677 0.005h72.787v-342.437h-627.564v342.2h73.532c0.191-0.003 0.417-0.005 0.643-0.005 25.114 0 45.473 20.359 45.473 45.473s-20.359 45.473-45.473 45.473c-0.226 0-0.452-0.002-0.677-0.005h-118.966c-25.111-0.003-45.466-20.358-45.469-45.468v0-433.137c0.003-25.111 20.358-45.466 45.468-45.469h718.501c25.111 0.003 45.466 20.358 45.469 45.468v0 433.374c-0.003 25.111-20.358 45.466-45.468 45.469v0zM669.599 674.324c-0.017 3.196-0.362 6.301-1.001 9.297l0.053-0.298c-0.739 3.303-1.716 6.189-2.957 8.93l0.116-0.286c-1.316 3.041-2.781 5.648-4.478 8.081l0.098-0.148c-6.989 9.822-17.583 16.687-29.814 18.673l-0.262 0.035c-1.231 0.241-2.771 0.45-4.334 0.581l-0.166 0.011c-0.726 0.041-1.576 0.065-2.431 0.065-3.931 0-7.745-0.499-11.383-1.436l0.315 0.069c-1.805-0.439-3.268-0.886-4.698-1.402l0.317 0.1c-4.568-1.646-8.524-3.808-12.076-6.478l0.117 0.084c-1.332-0.965-2.49-1.897-3.598-2.882l0.046 0.040c-0.16-0.158-0.314-0.312-0.467-0.468l-0.006-0.006-213.017-205.676c-4.175-4.187-7.539-9.185-9.836-14.736l-0.111-0.302c-1.668-3.877-2.843-8.371-3.301-13.076l-0.015-0.186c-0.111-1.19-0.174-2.574-0.174-3.972 0-1.813 0.106-3.601 0.312-5.359l-0.020 0.213c1.497-12.59 7.941-23.438 17.303-30.709l0.103-0.077c1.057-0.84 2.254-1.698 3.492-2.497l0.179-0.108c1.090-0.7 2.408-1.448 3.764-2.131l0.261-0.119c1.065-0.543 2.432-1.141 3.832-1.672l0.313-0.104c1.077-0.443 2.495-0.927 3.942-1.342l0.321-0.079c1.171-0.33 2.691-0.66 4.237-0.912l0.262-0.035c1.262-0.21 2.81-0.379 4.379-0.468l0.12-0.005c1.039-0.085 2.25-0.133 3.471-0.133 0.403 0 0.805 0.005 1.206 0.016l-0.059-0.001c1.689 0.095 3.237 0.264 4.76 0.508l-0.26-0.034c1.752 0.244 3.236 0.534 4.693 0.894l-0.312-0.065c1.805 0.439 3.268 0.886 4.698 1.402l-0.317-0.1c1.757 0.63 3.164 1.229 4.533 1.895l-0.27-0.118c1.632 0.763 2.951 1.474 4.23 2.246l-0.204-0.114c1.486 0.876 2.722 1.697 3.914 2.575l-0.125-0.088c1.264 0.988 2.382 1.957 3.452 2.977l-0.018-0.017c0.275 0.201 0.429 0.318 0.582 0.435l-0.109-0.080 213.017 205.793c1.065 1.039 2.071 2.12 3.023 3.248l0.056 0.068c1.805 2.213 3.455 4.695 4.854 7.332l0.119 0.246c0.62 1.090 1.294 2.452 1.899 3.85l0.114 0.294c2.101 5.047 3.321 10.911 3.321 17.059 0 0.247-0.002 0.493-0.006 0.739v-0.037zM410.877 959.994c-24.807-0.399-44.764-20.603-44.764-45.468 0-0.25 0.002-0.5 0.006-0.749v0.038-399.391c-0.003-0.191-0.005-0.417-0.005-0.643 0-25.114 20.359-45.473 45.473-45.473s45.473 20.359 45.473 45.473c0 0.226-0.002 0.452-0.005 0.677v-0.034 399.391c0.004 0.212 0.006 0.461 0.006 0.711 0 25.114-20.359 45.473-45.473 45.473-0.25 0-0.5-0.002-0.749-0.006h0.038zM197.268 720.099c-24.765-0.454-44.666-20.636-44.666-45.466 0-13.064 5.509-24.841 14.33-33.135l0.024-0.022 213.016-205.675c8.213-8.137 19.52-13.165 32-13.165 25.114 0 45.473 20.359 45.473 45.473 0 13.011-5.464 24.745-14.222 33.034l-0.021 0.020-213.016 205.794c-8.212 8.13-19.513 13.153-31.988 13.153-0.327 0-0.653-0.003-0.978-0.010l0.049 0.001z"/>
</font>
</defs>
</svg>
